<?xml version="1.0" standalone="no"?>
<!DOCTYPE svg PUBLIC "-//W3C//DTD SVG 20010904//EN"
 "http://www.w3.org/TR/2001/REC-SVG-20010904/DTD/svg10.dtd">
<svg version="1.0" xmlns="http://www.w3.org/2000/svg"
 width="71.000000pt" height="71.000000pt" viewBox="0 0 71.000000 71.000000"
 preserveAspectRatio="xMidYMid meet">
<metadata>
Created by potrace 1.11, written by Peter Selinger 2001-2013
</metadata>
<g transform="translate(0.000000,71.000000) scale(0.100000,-0.100000)"
fill="#000000" stroke="none">
<path d="M265 690 c-75 -20 -165 -82 -196 -135 -13 -22 -23 -44 -24 -48 0 -4
-7 -12 -15 -17 -8 -5 -12 -10 -9 -10 4 0 1 -27 -6 -59 -13 -63 -5 -155 17
-195 7 -11 13 -23 13 -26 3 -22 55 -91 84 -112 88 -63 145 -82 242 -80 93 2
225 71 264 137 42 71 54 95 51 95 -3 0 0 15 6 33 11 36 17 107 9 122 -2 5 -6
22 -8 37 -3 29 -23 75 -58 133 -32 54 -135 119 -207 130 -74 12 -105 11 -163
-5z m215 -67 l45 -21 -35 -1 c-32 -2 -33 -3 -17 -15 10 -8 19 -27 20 -42 2
-25 -2 -30 -28 -34 -21 -3 -31 -11 -32 -25 -6 -67 -17 -126 -24 -131 -5 -3 -8
43 -8 101 2 94 4 109 22 126 21 19 20 19 -61 19 -45 0 -82 -3 -82 -6 0 -3 7
-12 15 -21 21 -20 19 -124 -2 -116 -12 5 -18 24 -14 46 0 4 -5 7 -12 7 -8 0
-24 9 -37 20 l-23 20 22 24 23 25 -33 3 c-34 3 -34 3 21 25 71 28 175 26 240
-4z m-362 -355 l-3 -93 -27 55 c-36 74 -35 180 2 255 l25 50 3 -87 c1 -48 1
-129 0 -180z m503 215 c33 -71 36 -164 9 -235 -12 -32 -26 -60 -31 -63 -5 -4
-9 63 -9 169 0 97 2 176 5 176 2 0 14 -21 26 -47z m-124 -143 c-1 -57 -5 -76
-13 -69 -14 11 -25 59 -14 59 4 0 7 10 7 23 1 60 4 78 13 72 5 -3 8 -41 7 -85z
m-266 27 c-1 -5 5 -30 13 -58 8 -27 12 -49 8 -49 -3 0 -1 -5 6 -12 7 -7 8 -17
1 -30 -8 -16 -6 -18 21 -18 25 0 30 -4 30 -24 0 -14 -7 -31 -15 -40 -8 -8 -15
-17 -15 -20 0 -3 34 -6 75 -6 41 0 75 3 75 6 0 3 -7 12 -15 20 -8 9 -15 26
-15 40 0 21 4 24 39 24 57 0 72 -28 37 -67 l-19 -23 28 0 c38 0 20 -20 -33
-35 -68 -20 -143 -18 -207 7 l-60 22 35 7 c19 3 30 7 24 8 -22 2 -32 57 -32
181 0 98 2 120 10 100 6 -14 10 -29 9 -33z m78 -25 c0 -24 -1 -25 -9 -7 -12
28 -12 47 0 40 6 -3 10 -18 9 -33z"/>
</g>
</svg>
